<svg xmlns="http://www.w3.org/2000/svg" viewBox="0 0 666.01 686.27"><title>Open Knowledge International</title><path d="M30.4,576.77a22.94,22.94,0,0,0-8.82-1.64,22.94,22.94,0,0,0-8.82,1.64,20.49,20.49,0,0,0-6.82,4.51,19.94,19.94,0,0,0-4.39,6.8,24.32,24.32,0,0,0,0,17.1A19.87,19.87,0,0,0,5.94,612a20.5,20.5,0,0,0,6.81,4.47,22.94,22.94,0,0,0,8.82,1.64,22.94,22.94,0,0,0,8.82-1.64,19.78,19.78,0,0,0,11.18-11.32,24.26,24.26,0,0,0,0-17A19.84,19.84,0,0,0,30.4,576.77Zm3,25.78A12.35,12.35,0,0,1,30.88,607a10.9,10.9,0,0,1-4,2.8,13.7,13.7,0,0,1-5.29,1,13.8,13.8,0,0,1-5.31-1,10.79,10.79,0,0,1-4-2.8,12.41,12.41,0,0,1-2.55-4.44,20.75,20.75,0,0,1,0-11.89,12.44,12.44,0,0,1,2.51-4.47,10.81,10.81,0,0,1,4-2.81,13.8,13.8,0,0,1,5.31-1,13.7,13.7,0,0,1,5.29,1,10.81,10.81,0,0,1,4,2.81,12.44,12.44,0,0,1,2.51,4.47,18.65,18.65,0,0,1,.87,5.93A19.06,19.06,0,0,1,33.39,602.55Z"/><path d="M85.53,579.4a14.11,14.11,0,0,0-5.18-2.83,24.49,24.49,0,0,0-7.47-1H58.67v42.08h8.7V603.13h5.56a23.41,23.41,0,0,0,7.34-1,14.41,14.41,0,0,0,5.19-2.88,11.6,11.6,0,0,0,3.07-4.44,15.29,15.29,0,0,0,1-5.68,14.79,14.79,0,0,0-1-5.42A11.09,11.09,0,0,0,85.53,579.4Zm-6.65,15.11q-1.91,2-6,2H67.37V582.16h5.52a11,11,0,0,1,3.51.49,6.47,6.47,0,0,1,2.45,1.41,5.6,5.6,0,0,1,1.45,2.2,8.22,8.22,0,0,1,.48,2.86A7.46,7.46,0,0,1,78.88,594.51Z"/><polygon points="104.2 617.61 131 617.61 131 610.79 113 610.79 113 599.79 127 599.79 127 593.21 113 593.21 113 582.39 131 582.39 131 575.57 104.2 575.57 104.2 617.61"/><path d="M175,599.62c0,.63,0,1.3.06,2s.09,1.42.17,2.15l-21.11-26.83a6,6,0,0,0-.64-.7,2.55,2.55,0,0,0-.61-.42,1.93,1.93,0,0,0-.71-.2,8.54,8.54,0,0,0-1,0h-4.58v42.1h7.68V593.34c0-.54,0-1.14,0-1.81s-.07-1.33-.13-2l21,26.65a4.27,4.27,0,0,0,1.36,1.14,3.87,3.87,0,0,0,1.71.33h4.5V575.57H175Z"/><path d="M244.86,596.29a7.11,7.11,0,0,0-1.83-1.06,8.54,8.54,0,0,0,2.7-2.41l13.4-17.25h-7.54a5.53,5.53,0,0,0-2.2.39,4.24,4.24,0,0,0-1.65,1.41L237.1,591.61a3.53,3.53,0,0,1-3.1,1.33h-1.68V575.57h-8.7v42.08h8.7V599.41h2.44a5.48,5.48,0,0,1,2.12.33,3.14,3.14,0,0,1,1.3,1.12L249,616a5,5,0,0,0,.51.7,2.52,2.52,0,0,0,.7.51,3.86,3.86,0,0,0,.94.32,5.59,5.59,0,0,0,1.29.12h7.74L246.43,598A8.34,8.34,0,0,0,244.86,596.29Z"/><path d="M301.45,599.62c0,.63,0,1.3.06,2s.09,1.42.17,2.15l-21.11-26.83a6,6,0,0,0-.64-.7,2.55,2.55,0,0,0-.61-.42,1.93,1.93,0,0,0-.71-.2,8.54,8.54,0,0,0-1,0H273v42.1h7.68V593.34c0-.54,0-1.14,0-1.81s-.07-1.33-.13-2l21,26.65a4.27,4.27,0,0,0,1.36,1.14,3.87,3.87,0,0,0,1.71.33h4.5V575.57h-7.69Z"/><path d="M366.23,605.15a24.19,24.19,0,0,0,0-17,19.84,19.84,0,0,0-11.18-11.34,24.58,24.58,0,0,0-17.63,0,20.49,20.49,0,0,0-6.82,4.51,19.94,19.94,0,0,0-4.39,6.8,24.32,24.32,0,0,0,0,17.1A19.87,19.87,0,0,0,330.6,612a20.36,20.36,0,0,0,6.77,4.48,24.58,24.58,0,0,0,17.63,0A19.76,19.76,0,0,0,366.23,605.15Zm-7.36-8.55a19.11,19.11,0,0,1-.86,6A12.35,12.35,0,0,1,355.5,607a10.9,10.9,0,0,1-4,2.8,14.89,14.89,0,0,1-10.6,0,10.79,10.79,0,0,1-4-2.8,12.35,12.35,0,0,1-2.51-4.45,20.75,20.75,0,0,1,0-11.89,12.44,12.44,0,0,1,2.51-4.47,10.81,10.81,0,0,1,4-2.81,14.89,14.89,0,0,1,10.6,0,10.81,10.81,0,0,1,4,2.81,12.44,12.44,0,0,1,2.51,4.47,18.65,18.65,0,0,1,.87,5.93Z"/><path d="M439,575.6h-6.84a3.1,3.1,0,0,0-1.88.58,2.43,2.43,0,0,0-1,1.33l-6.52,23.72c-.15.6-.31,1.27-.46,2s-.31,1.51-.46,2.32c-.16-.83-.34-1.61-.54-2.32s-.41-1.38-.62-2l-7.57-23.72a3.27,3.27,0,0,0-1.06-1.38,3,3,0,0,0-1.84-.54h-2.55a3,3,0,0,0-1.87.59,2.78,2.78,0,0,0-1,1.32l-7.6,23.72c-.23.66-.45,1.37-.64,2.13s-.38,1.57-.55,2.42c-.15-.84-.31-1.64-.48-2.41l-.48-2.15-6.55-23.73a2.4,2.4,0,0,0-1-1.39,3.37,3.37,0,0,0-1.9-.52h-7.31l13,42.11h7.89l8.7-27.52c.13-.39.26-.81.39-1.28l.39-1.45c.11.5.23,1,.36,1.45a12,12,0,0,0,.42,1.28L418,617.68h8Z"/><polygon points="461.5 610.57 461.5 575.57 452.8 575.57 452.8 617.66 477.8 617.66 477.8 610.58 461.53 610.58 461.5 610.57"/><polygon points="492.2 575.57 492.2 617.61 519 617.61 519 610.79 501 610.79 501 599.79 515 599.79 515 593.21 501 593.21 501 582.39 519.07 582.39 519.07 575.57 519 575.57 492.2 575.57"/><path d="M566.53,581.5a20,20,0,0,0-6.8-4.36,23.73,23.73,0,0,0-8.82-1.57H534.73v42.09h16.18a23.73,23.73,0,0,0,8.82-1.57,19.93,19.93,0,0,0,6.8-4.35,19.25,19.25,0,0,0,4.38-6.66,23.86,23.86,0,0,0,0-16.92A19.54,19.54,0,0,0,566.53,581.5Zm-3,15.1a18.93,18.93,0,0,1-.86,5.93,12.67,12.67,0,0,1-2.49,4.48,10.7,10.7,0,0,1-4,2.81,13.7,13.7,0,0,1-5.29,1h-7.42V582.37h7.42a13.7,13.7,0,0,1,5.29,1,10.81,10.81,0,0,1,4,2.81,12.39,12.39,0,0,1,2.49,4.47,18.73,18.73,0,0,1,.87,6Z"/><path d="M598.07,586.28a11.29,11.29,0,0,1,4-2.87,13.41,13.41,0,0,1,5.31-1,21,21,0,0,1,3.07.2,14.9,14.9,0,0,1,2.46.58,16.46,16.46,0,0,1,2.13.88,22.75,22.75,0,0,1,2,1.15,2.78,2.78,0,0,0,2,.46,2.34,2.34,0,0,0,1.51-1.13l2.52-3.89a19.89,19.89,0,0,0-6.41-4,24,24,0,0,0-4.18-1.16,26.55,26.55,0,0,0-4.87-.42,24.69,24.69,0,0,0-9.12,1.59,20.29,20.29,0,0,0-7,4.44,19.5,19.5,0,0,0-4.42,6.79,23.58,23.58,0,0,0-1.55,8.67,22.48,22.48,0,0,0,1.62,8.61A19.7,19.7,0,0,0,591.8,612a21.15,21.15,0,0,0,7.18,4.48,26,26,0,0,0,9.4,1.61,26.74,26.74,0,0,0,7.7-1.09,22.31,22.31,0,0,0,6.86-3.43V596.2H608.5V601a1.53,1.53,0,0,0,.48,1.15,1.82,1.82,0,0,0,1.32.45h4.9v7.08a19.07,19.07,0,0,1-3.2,1.15,16.51,16.51,0,0,1-9.31-.57,12,12,0,0,1-4.31-2.87,13,13,0,0,1-2.78-4.63,18.26,18.26,0,0,1-1-6.22,17.76,17.76,0,0,1,.9-5.83A12.89,12.89,0,0,1,598.07,586.28Z"/><polygon points="666 582.39 666 575.57 639.2 575.57 639.2 617.61 666 617.61 666 610.79 648 610.79 648 599.79 662 599.79 662 593.21 648 593.21 648 582.39 666 582.39"/><rect x="67.25" y="646.45" width="5.33" height="39.41"/><path d="M119.13,674.36c0,.42,0,.86,0,1.31s.06.92.11,1.39l-22.82-29.7a2.72,2.72,0,0,0-.78-.73,2.42,2.42,0,0,0-1.06-.18H91.83v39.42h4.65V657.79c0-.37,0-.77,0-1.21s0-.89-.08-1.35l22.8,29.67a2.6,2.6,0,0,0,.84.74,2.27,2.27,0,0,0,1.06.22h2.7V646.45h-4.67Z"/><polygon points="138.08 650.94 150.88 650.94 150.88 685.85 156.21 685.85 156.21 650.93 168.94 650.93 168.94 646.46 138.08 646.46 138.08 650.94"/><polygon points="183.24 685.85 207.52 685.85 207.52 681.51 188.6 681.51 188.6 668.06 203.92 668.06 203.92 663.88 188.6 663.88 188.6 650.79 207.52 650.79 207.52 646.45 183.24 646.45 183.24 685.85"/><path d="M240.31,668.54a14.92,14.92,0,0,0,4.08-1.54,11.5,11.5,0,0,0,3.05-2.46,10.4,10.4,0,0,0,1.91-3.26,11.31,11.31,0,0,0,.66-3.91,11.64,11.64,0,0,0-.85-4.52,8.75,8.75,0,0,0-2.63-3.45,12.41,12.41,0,0,0-4.5-2.19,24.25,24.25,0,0,0-6.46-.76H224.43v39.42h5.31V669.42h4.06a3.72,3.72,0,0,1,1.65.29,2.93,2.93,0,0,1,1,.95l10.23,14.08a2.33,2.33,0,0,0,2.15,1.13h4.73l-11.49-15.65A5.76,5.76,0,0,0,240.31,668.54Zm-5-3h-5.55V650.67h5.83c3.07,0,5.37.6,6.92,1.79a6.29,6.29,0,0,1,2.32,5.31,8,8,0,0,1-.61,3.16,6.65,6.65,0,0,1-1.8,2.46,8.35,8.35,0,0,1-3,1.59A13.6,13.6,0,0,1,235.32,665.54Z"/><path d="M295.29,674.36c0,.42,0,.86,0,1.31s.06.92.11,1.39l-22.82-29.7a2.72,2.72,0,0,0-.78-.73,2.35,2.35,0,0,0-1.05-.18H268v39.42h4.64V657.79c0-.37,0-.77,0-1.21s0-.89-.08-1.35l22.8,29.67a2.6,2.6,0,0,0,.84.74,2.27,2.27,0,0,0,1.06.22H300V646.45h-4.67Z"/><path d="M329.52,646.44l-15.76,39.41h4.12a1.77,1.77,0,0,0,1.15-.38,2.14,2.14,0,0,0,.66-.88l3.69-9.52h17.69l3.69,9.52a2.14,2.14,0,0,0,.66.91,1.77,1.77,0,0,0,1.15.36h4.12l-15.75-39.42Zm-4.65,24.79,6.19-16c.18-.47.37-1,.56-1.66s.39-1.33.59-2.08a30.17,30.17,0,0,0,1.18,3.71l6.19,16Z"/><polygon points="387.56 646.45 387.56 646.46 387.57 646.46 387.56 646.45"/><polygon points="356.71 650.94 369.5 650.94 369.5 685.85 374.83 685.85 374.83 650.93 387.56 650.93 387.56 646.46 356.71 646.46 356.71 650.94"/><rect x="402.86" y="646.45" width="5.33" height="39.41"/><path d="M458.6,651.67a17.7,17.7,0,0,0-6.15-4.17,21.89,21.89,0,0,0-15.85,0,17.86,17.86,0,0,0-6.13,4.17,18.71,18.71,0,0,0-4,6.38,24.24,24.24,0,0,0,0,16.25,18.76,18.76,0,0,0,4,6.37,17.64,17.64,0,0,0,6.13,4.14,22.1,22.1,0,0,0,15.85,0,17.63,17.63,0,0,0,6.15-4.14,18.76,18.76,0,0,0,4-6.37,24.28,24.28,0,0,0,0-16.25A18.71,18.71,0,0,0,458.6,651.67Zm-1.07,21a13.71,13.71,0,0,1-2.8,4.87,12,12,0,0,1-4.4,3.05,16.22,16.22,0,0,1-11.52,0,12.19,12.19,0,0,1-4.41-3.05,13.61,13.61,0,0,1-2.82-4.87,21.83,21.83,0,0,1,0-13,13.57,13.57,0,0,1,2.82-4.88,12.32,12.32,0,0,1,4.41-3.07,16,16,0,0,1,11.52,0,12.08,12.08,0,0,1,4.4,3.07,13.84,13.84,0,0,1,2.8,4.88,20,20,0,0,1,1,6.52h0A20.12,20.12,0,0,1,457.53,672.65Z"/><path d="M507.32,674.36c0,.42,0,.86,0,1.31s.06.92.11,1.39l-22.82-29.7a2.72,2.72,0,0,0-.78-.73,2.49,2.49,0,0,0-1.08-.18H480v39.42h4.68V657.79c0-.37,0-.77,0-1.21s0-.89-.08-1.35l22.8,29.67a2.6,2.6,0,0,0,.84.74,2.27,2.27,0,0,0,1.06.22H512V646.45h-4.68Z"/><path d="M541.54,646.44l-15.76,39.41h4.12a1.77,1.77,0,0,0,1.15-.38,2.14,2.14,0,0,0,.66-.88l3.69-9.52h17.69l3.69,9.52a2.14,2.14,0,0,0,.66.91,1.77,1.77,0,0,0,1.15.36h4.12L547,646.44Zm-4.65,24.79,6.19-16c.18-.47.37-1,.56-1.66s.39-1.33.59-2.08a30.17,30.17,0,0,0,1.18,3.71l6.19,16Z"/><polygon points="581.71 681.37 581.71 646.45 576.38 646.45 576.38 685.86 598.71 685.86 598.71 681.38 581.71 681.38 581.71 681.37"/><path d="M439.61,132.73,529.45,12.48l-6.4-4.78s-88.64,118.85-89.76,120.22Z"/><rect x="411.09" y="95.25" width="52.64" height="7.98" transform="matrix(0.52, -0.85, 0.85, 0.52, 123.58, 419.69)"/><rect x="391.44" y="79.98" width="67.41" height="7.98" transform="translate(160.54 427.16) rotate(-63.54)"/><rect x="371.75" y="68.38" width="76.23" height="7.98" transform="translate(193.43 427.88) rotate(-68.68)"/><rect x="343.18" y="48.02" width="106" height="7.98" transform="translate(235.76 417.97) rotate(-73.81)"/><rect x="336.67" y="59.22" width="73.48" height="7.98" transform="translate(239.8 417.58) rotate(-78.95)"/><rect x="320.88" y="59.48" width="67.39" height="7.98" transform="translate(254.88 409.61) rotate(-84.08)"/><rect x="309.86" y="66.81" width="49.98" height="7.98" transform="translate(260.71 404.93) rotate(-89.43)"/><rect x="313.34" y="21.16" width="7.98" height="75.51" transform="translate(-3.57 24.41) rotate(-4.38)"/><rect x="297.49" y="39.27" width="8.02" height="58.57" transform="translate(-7.25 52.01) rotate(-9.74)"/><rect x="279.23" y="50.78" width="7.98" height="51.68" transform="matrix(0.97, -0.25, 0.25, 0.97, -10.17, 74.22)"/><rect x="259.08" y="37.87" width="7.98" height="70.43" transform="translate(-9.2 93.48) rotate(-19.81)"/><rect x="249.41" y="79.05" width="7.98" height="34.65" transform="translate(-17 115.93) rotate(-24.96)"/><rect x="231.92" y="77.96" width="7.98" height="44.27" transform="translate(-18.39 131.77) rotate(-30.09)"/><rect x="226.09" y="115.2" width="7.98" height="13.58" transform="translate(-28.23 155.11) rotate(-35.24)"/><rect x="195.69" y="76.93" width="7.98" height="68.22" transform="translate(-24.37 155.82) rotate(-40.38)"/><rect x="186.64" y="100.29" width="7.98" height="55.57" transform="translate(-34.31 174.39) rotate(-45.53)"/><rect x="165.98" y="95.3" width="7.98" height="78.02" transform="translate(-41.64 180.66) rotate(-50.67)"/><rect x="159.07" y="118.87" width="7.98" height="67.28" transform="matrix(0.56, -0.83, 0.83, 0.56, -54.72, 201.69)"/><rect x="126.35" y="95.48" width="7.98" height="119.96" transform="translate(-68.85 193.92) rotate(-60.95)"/><rect x="152.58" y="168.69" width="7.98" height="42.26" transform="translate(-80.41 256.05) rotate(-66.1)"/><rect x="116.2" y="142.91" width="7.98" height="105.75" transform="matrix(0.32, -0.95, 0.95, 0.32, -103.85, 246.62)"/><rect x="104.74" y="154.9" width="7.98" height="117.74" transform="translate(-124.63 269.11) rotate(-76.38)"/><rect x="135.69" y="215.78" width="7.98" height="47.12" transform="translate(-117.64 342.2) rotate(-81.52)"/><rect x="114.69" y="212.9" width="7.98" height="85.52" transform="translate(-143.44 359.29) rotate(-86.67)"/><rect x="95.62" y="270.98" width="65.22" height="7.98" transform="translate(-8.19 3.97) rotate(-1.72)"/><rect x="79.28" y="290.07" width="83.36" height="7.98" transform="translate(-34.69 16.8) rotate(-6.95)"/><rect x="115" y="305.54" width="50.46" height="7.98" transform="translate(-61.77 36.27) rotate(-12.1)"/><rect x="151.74" y="319.07" width="19.49" height="8.03" transform="translate(-89.01 62.87) rotate(-17.35)"/><rect x="115.63" y="341.29" width="60.7" height="7.98" transform="translate(-120.52 81.64) rotate(-22.39)"/><rect x="114.38" y="359.95" width="70.14" height="7.98" transform="translate(-151.34 110.34) rotate(-27.54)"/><rect x="111.92" y="379.5" width="82.93" height="7.98" transform="translate(-182.74 143.47) rotate(-32.67)"/><rect x="129.51" y="392.94" width="75.61" height="7.98" transform="translate(-208.24 185.98) rotate(-37.82)"/><rect x="145.35" y="405.84" width="71.44" height="7.98" transform="translate(-230.74 233.3) rotate(-42.96)"/><rect x="156.74" y="419.8" width="73.71" height="7.98" transform="translate(-251.1 284.79) rotate(-48.09)"/><rect x="176.57" y="429.04" width="67.05" height="7.98" transform="translate(-262.55 342.11) rotate(-53.23)"/><rect x="217" y="425.34" width="34.02" height="7.98" transform="translate(-254.27 403.59) rotate(-58.39)"/><rect x="191.99" y="458.3" width="89.15" height="7.98" transform="translate(-282.7 468) rotate(-63.53)"/><rect x="225.39" y="455.49" width="66.24" height="7.98" transform="translate(-263.53 533.15) rotate(-68.67)"/><rect x="258.27" y="450.48" width="42.32" height="7.98" transform="translate(-235.1 595.48) rotate(-73.74)"/><rect x="264" y="463.14" width="60.79" height="7.98" transform="translate(-220.5 666.53) rotate(-78.95)"/><rect x="281.41" y="466.33" width="61.82" height="7.98" transform="translate(-187.7 732.47) rotate(-84.08)"/><rect x="309.47" y="457.55" width="42.29" height="7.98" transform="translate(-135.33 785.92) rotate(-89.23)"/><rect x="344.89" y="439.87" width="7.98" height="66.57" transform="translate(-35.12 28.03) rotate(-4.38)"/><rect x="364.48" y="437.51" width="7.98" height="81.75" transform="matrix(0.99, -0.17, 0.17, 0.99, -74.12, 67.61)"/><rect x="386.89" y="433.05" width="7.98" height="111" transform="translate(-110.98 114.92) rotate(-14.67)"/><rect x="395.91" y="428.87" width="7.98" height="49.39" transform="translate(-130.05 162.37) rotate(-19.81)"/><rect x="415.98" y="421.33" width="7.98" height="66.99" transform="translate(-152.66 219.6) rotate(-24.95)"/><rect x="448.54" y="408.4" width="7.98" height="131.45" transform="translate(-176.76 290.88) rotate(-30.1)"/><rect x="449.87" y="402.2" width="7.98" height="73.8" transform="translate(-170.19 342.35) rotate(-35.24)"/><polygon points="447.82 396.9 441.74 402.07 445.93 407.05 452.01 401.88 447.82 396.9"/><rect x="477.09" y="378.43" width="7.98" height="70.06" transform="translate(-150.98 467.12) rotate(-45.53)"/><rect x="483.51" y="367.49" width="7.98" height="54.49" transform="translate(-126.8 521.64) rotate(-50.67)"/><rect x="498.96" y="350.69" width="7.98" height="65.9" transform="translate(-97.02 584.09) rotate(-55.81)"/><rect x="501.3" y="339.23" width="7.98" height="49.25" transform="translate(-58.1 629) rotate(-60.96)"/><rect x="529.15" y="310.46" width="7.98" height="92.91" transform="matrix(0.41, -0.91, 0.91, 0.41, -9.17, 699.74)"/><rect x="502.7" y="316.26" width="7.98" height="21.96" transform="translate(33.94 701.85) rotate(-71.25)"/><path d="M582.37,324.58,501.57,305l-1.89,7.71c2.31.62,80.81,19.62,80.81,19.62Z"/><rect x="532.15" y="265.62" width="7.98" height="65.87" transform="translate(161.87 784.88) rotate(-81.53)"/><rect x="529.25" y="251.85" width="7.98" height="56.25" transform="translate(222.76 796.05) rotate(-86.67)"/><rect x="505.38" y="258.27" width="41.83" height="7.98" transform="translate(-8.02 16.75) rotate(-1.81)"/><rect x="504.1" y="241.29" width="36.29" height="7.98" transform="translate(-25.84 65) rotate(-6.95)"/><rect x="501.09" y="222.75" width="52.87" height="7.98" transform="translate(-35.79 115.52) rotate(-12.09)"/><rect x="497.21" y="209.6" width="25" height="7.98" transform="translate(-40.41 160.76) rotate(-17.25)"/><rect x="491.19" y="191.9" width="36.07" height="7.98" transform="translate(-36.23 208.64) rotate(-22.38)"/><rect x="481.39" y="165.8" width="82.04" height="7.98" transform="translate(-19.33 260.69) rotate(-27.53)"/><rect x="470" y="143.09" width="104.88" height="7.98" transform="translate(3.26 305.28) rotate(-32.67)"/><rect x="466.87" y="151.41" width="23.88" height="7.98" transform="translate(5.29 326.24) rotate(-37.82)"/><path d="M456.73,148l5.38,5.9h0l13.33-12.41L470,135.63S458,146.82,456.73,148Z"/><rect x="425.89" y="85.81" width="135.27" height="7.98" transform="translate(97.1 397.17) rotate(-48.1)"/><rect x="394.42" y="182.61" width="3.02" height="3.99" transform="translate(11.01 391.18) rotate(-53.22)"/><rect x="366.77" y="188.47" width="29.15" height="3.99" transform="translate(19.22 415.34) rotate(-58.38)"/><rect x="362.04" y="182.94" width="25.72" height="3.99" transform="translate(42.29 438.16) rotate(-63.54)"/><rect x="355.74" y="178.62" width="23.74" height="3.99" transform="translate(65.75 457.45) rotate(-68.69)"/><rect x="353.45" y="171.62" width="14.84" height="3.99" transform="translate(93.51 471.76) rotate(-73.81)"/><rect x="339.36" y="174.03" width="24.01" height="3.99" transform="translate(111.31 487.18) rotate(-78.96)"/><rect x="330.19" y="173.57" width="25.56" height="3.99" transform="translate(132.97 498.6) rotate(-84.08)"/><rect x="319.4" y="175.48" width="30.34" height="3.99" transform="translate(152.67 509.66) rotate(-89.24)"/><rect x="325.72" y="161.86" width="4" height="23.68" transform="translate(-12.81 26.69) rotate(-4.57)"/><rect x="316.1" y="163.55" width="3.99" height="27.87" transform="translate(-24.97 55.05) rotate(-9.52)"/><rect x="308.28" y="165.23" width="3.99" height="29.89" transform="translate(-35.52 84.45) rotate(-14.67)"/><rect x="299.51" y="167.84" width="3.99" height="24.28" transform="translate(-43.15 112.83) rotate(-19.81)"/><rect x="293.94" y="170.51" width="3.99" height="34.79" transform="translate(-51.65 142.43) rotate(-24.96)"/><rect x="286.34" y="174.36" width="3.99" height="32.69" transform="translate(-56.76 170.32) rotate(-30.1)"/><rect x="282" y="177.95" width="3.99" height="41.14" transform="translate(-62.5 200.25) rotate(-35.24)"/><rect x="270.81" y="184.51" width="3.99" height="25.33" transform="translate(-62.75 223.71) rotate(-40.38)"/><rect x="266.01" y="189.67" width="3.99" height="29.07" transform="translate(-65.47 252.34) rotate(-45.52)"/><rect x="258.23" y="196.85" width="3.99" height="23.15" transform="translate(-65.92 277.61) rotate(-50.67)"/><rect x="254.4" y="201.88" width="4" height="25.92" transform="translate(-65.1 307.22) rotate(-55.99)"/><rect x="243.58" y="213.87" width="3.99" height="11.45" transform="translate(-65.61 327.7) rotate(-60.96)"/><rect x="249.6" y="215.42" width="3.99" height="33.38" transform="translate(-62.54 368.1) rotate(-66.1)"/><rect x="238.22" y="228.92" width="3.99" height="15.53" transform="translate(-61.12 388.06) rotate(-71.25)"/><path d="M229.76,245.3l11.64,2.82.94-3.88s-10.39-2.5-11.65-2.82Z"/><rect x="242.25" y="239" width="3.99" height="32.08" transform="translate(-43.99 459.05) rotate(-81.53)"/><rect x="235.96" y="252.22" width="3.99" height="21.13" transform="translate(-38.21 485.07) rotate(-86.67)"/><rect x="227.29" y="269.25" width="26.49" height="3.99" transform="translate(-8.4 7.69) rotate(-1.8)"/><rect x="227.92" y="277.86" width="21.79" height="3.99" transform="translate(-32.11 30.95) rotate(-6.95)"/><rect x="229.22" y="285.37" width="30.59" height="3.99" transform="translate(-54.76 57.59) rotate(-12.09)"/><rect x="231.08" y="292" width="39.1" height="3.99" transform="translate(-75.91 87.55) rotate(-17.25)"/><rect x="234.14" y="301.44" width="27.86" height="3.99" transform="translate(-96.85 117.31) rotate(-22.38)"/><rect x="237.79" y="309.5" width="25.33" height="3.99" transform="translate(-115.59 150.97) rotate(-27.52)"/><rect x="242.28" y="317.73" width="21.64" height="3.99" transform="translate(-132.57 187.27) rotate(-32.68)"/><rect x="246.95" y="324.04" width="23.99" height="3.99" transform="translate(-145.51 227.19) rotate(-37.81)"/><rect x="252.26" y="330.04" width="25.22" height="3.99" transform="translate(-155.23 269.4) rotate(-42.94)"/><rect x="258.31" y="336.07" width="24.79" height="3.99" transform="translate(-161.71 313.78) rotate(-48.1)"/><rect x="264.55" y="340.88" width="26.07" height="3.99" transform="translate(-163.23 360.22) rotate(-53.26)"/><rect x="269.39" y="341.9" width="34.75" height="3.99" transform="translate(-156.42 407.8) rotate(-58.38)"/><rect x="280.38" y="352.28" width="20.21" height="3.99" transform="translate(-156.13 456.4) rotate(-63.53)"/><rect x="286.37" y="353.02" width="26.17" height="3.99" transform="translate(-140.22 504.66) rotate(-68.65)"/><rect x="291.73" y="352.32" width="33.15" height="3.99" transform="translate(-117.92 551.61) rotate(-73.81)"/><rect x="301.39" y="356.46" width="28.54" height="3.99" transform="translate(-96.61 599.64) rotate(-78.96)"/><rect x="309.9" y="358.08" width="27.8" height="3.99" transform="translate(-67.7 645.08) rotate(-84.09)"/><rect x="315.43" y="355.8" width="33.34" height="3.99" transform="translate(-30.13 685.05) rotate(-89.23)"/><rect x="338.39" y="347.87" width="3.99" height="26.31" transform="translate(-26.58 27.05) rotate(-4.38)"/><rect x="347.03" y="351.31" width="3.99" height="21.83" transform="translate(-55.1 62.71) rotate(-9.52)"/><rect x="356.27" y="356.51" width="3.99" height="14.75" transform="translate(-80.43 102.52) rotate(-14.66)"/><rect x="362.06" y="338.48" width="3.99" height="30.59" transform="translate(-98.35 144.31) rotate(-19.81)"/><rect x="370.62" y="340.05" width="3.99" height="25.71" transform="translate(-114.09 190.11) rotate(-24.95)"/><rect x="382.47" y="352.75" width="3.99" height="7.98" transform="matrix(0.87, -0.5, 0.5, 0.87, -127.04, 240.83)"/><rect x="385.61" y="333.36" width="3.99" height="23.86" transform="translate(-128.19 286.84) rotate(-35.23)"/><rect x="386.11" y="311.37" width="3.99" height="42.93" transform="translate(-123.17 330.73) rotate(-40.38)"/><rect x="398.18" y="321.68" width="3.99" height="24.69" transform="translate(-118.53 385.6) rotate(-45.53)"/><rect x="402.1" y="311.91" width="3.99" height="29.1" transform="translate(-104.55 432.03) rotate(-50.66)"/><rect x="408.45" y="307.99" width="3.99" height="25.63" transform="translate(-85.56 480.04) rotate(-55.81)"/><rect x="410.63" y="297.13" width="3.99" height="30.66" transform="translate(-60.88 521.45) rotate(-60.95)"/><rect x="419.53" y="297.92" width="3.99" height="19.12" transform="translate(-30.37 568.29) rotate(-66.1)"/><rect x="413.44" y="276.96" width="3.99" height="38.7" transform="translate(1.21 594.31) rotate(-71.23)"/><rect x="424.13" y="280.32" width="3.99" height="21.19" transform="translate(42.99 636.48) rotate(-76.37)"/><rect x="423.47" y="269.24" width="3.99" height="25.83" transform="translate(83.59 661.3) rotate(-81.51)"/><rect x="423.13" y="259.64" width="3.99" height="28.16" transform="translate(127.17 682.23) rotate(-86.67)"/><rect x="406.48" y="263.62" width="32.87" height="3.99" transform="translate(-8.04 13.26) rotate(-1.78)"/><rect x="404.76" y="255.61" width="33.99" height="3.99" transform="translate(-28.07 52.93) rotate(-6.95)"/><rect x="407.45" y="247.31" width="29.94" height="3.99" transform="translate(-42.85 94) rotate(-12.09)"/><rect x="401.09" y="240.18" width="37.43" height="4.01" transform="translate(-53.13 136.24) rotate(-17.35)"/><rect x="398.47" y="232.49" width="34.24" height="3.99" transform="translate(-57.97 175.82) rotate(-22.37)"/><polygon points="426.45 217.66 407 227.75 408.86 231.29 428.32 221.15 427.41 219.38 426.45 217.66"/><rect x="408.92" y="213.14" width="14.89" height="3.99" transform="translate(-50.27 258.71) rotate(-32.66)"/><rect x="382.86" y="213.13" width="38.32" height="3.99" transform="translate(-47.48 291.62) rotate(-37.81)"/><rect x="376.99" y="207.45" width="39.25" height="3.99" transform="translate(-36.37 326.46) rotate(-42.96)"/><rect x="398.65" y="189.93" width="6.65" height="3.99" transform="translate(-9.39 362.8) rotate(-48.08)"/></svg>
